<svg width="57" height="57" viewBox="0 0 57 57" fill="none" xmlns="http://www.w3.org/2000/svg">
<path d="M3.99969 28.5C3.99969 41.9975 14.9425 52.9404 28.4401 52.9404C41.9376 52.9404 52.8805 41.9975 52.8805 28.5C52.8805 27.0826 52.7525 25.6975 52.5224 24.3464H4.35933C4.12767 25.6959 3.99969 27.0826 3.99969 28.5Z" fill="#476085"/>
<path d="M54.9362 28.5C54.9362 43.0764 43.0764 54.9362 28.5 54.9362C13.9236 54.9362 2.06383 43.0764 2.06383 28.5C2.06383 27.0874 2.17885 25.6991 2.39268 24.3464H0.306173C0.106918 25.7023 0 27.089 0 28.5C0 44.2153 12.7847 57 28.5 57C44.2153 57 57 44.2153 57 28.5C57 27.089 56.8931 25.7023 56.6938 24.3464H54.6073C54.8212 25.6991 54.9362 27.0858 54.9362 28.5Z" fill="#476085"/>
<path d="M28.44 4.05963C16.3584 4.05963 6.3324 12.8269 4.35767 24.3464H52.5208C50.5493 12.8269 40.5217 4.05963 28.44 4.05963Z" fill="#C7D3DD"/>
<path d="M28.5 0C14.1957 0 2.32301 10.5929 0.306152 24.3448H2.39266C4.3917 11.735 15.3362 2.06383 28.5 2.06383C41.6638 2.06383 52.6083 11.735 54.6073 24.3464H56.6938C54.6753 10.5929 42.8026 0 28.5 0Z" fill="#C7D3DD"/>
<path d="M7.05042 25.7607H47.7341L46.1693 20.546L43.4866 20.1734L39.3136 16.522H36.4074L36.1093 14.51L34.6951 13.9884L33.5028 10.4115L30.8201 11.0822L26.349 16.373L21.9524 19.7263L17.9285 17.1182L12.0415 19.5773L7.05042 25.7607Z" fill="white"/>
<path d="M10.6998 22.7799L12.5628 20.3969L17.9281 18.4594L19.1949 22.7799L16.8103 20.6205L10.6998 22.7799Z" fill="#A0B4C5"/>
<path d="M30.8198 18.0869L33.2043 22.7799L35.0657 19.4282L38.7171 21.1421L42.294 20.4342L39.0152 17.5653H35.5873L35.2892 15.1062L34.0986 14.6591L33.1298 12.2L30.8198 18.0869Z" fill="#A0B4C5"/>
<path d="M7.05005 25.7607L11.9666 31.9457L19.1949 34.7774L19.5675 39.3975L25.2309 44.0921L29.9255 49.9775L34.9928 48.9342L36.556 49.9775L41.8468 44.3902L42.7411 37.8699L44.2314 33.8831L46.467 30.6043L47.7338 25.7607H7.05005Z" fill="#354864"/>
<path d="M34.6202 27.0275L35.7363 30.2318L38.0464 29.7101V36.0442L43.2627 27.0275H34.6202Z" fill="#476085"/>
<path d="M11.1469 28.8159L15.6925 27.6982L18.8968 28.8159L17.779 32.9144L14.9473 29.7101L11.1469 28.8159Z" fill="#476085"/>
<path d="M43.2627 33.8086L41.6978 37.8698L40.9526 43.9431L36.5561 48.7852L33.4279 47.52L39.4623 42.3037V38.5032L43.2627 33.8086Z" fill="#476085"/>
<path d="M29.3294 47.5945L28.4352 37.8699C28.4352 37.8699 26.9448 46.4022 24.1131 39.2485L22.6973 31.0515L20.3127 34.7029L20.7598 38.8014L25.678 43.2725L29.3294 47.5945Z" fill="#476085"/>
</svg>
